<svg xmlns="http://www.w3.org/2000/svg" fill="none" viewBox="0 0 145 70" height="70" width="145">
<path fill="#111111" d="M122.272 47.4899H122.482C122.726 47.4899 122.935 47.4202 122.935 47.2459C122.935 47.1064 122.795 47.0018 122.517 47.0018C122.394 47.0018 122.307 47.0192 122.272 47.0192V47.4899ZM122.255 48.3964H121.802V46.7752C121.976 46.7578 122.238 46.7229 122.551 46.7229C122.917 46.7229 123.092 46.7752 123.231 46.8449C123.353 46.9147 123.44 47.0367 123.44 47.1936C123.44 47.3853 123.266 47.5248 123.039 47.5771V47.5945C123.231 47.6468 123.336 47.7688 123.388 47.9954C123.44 48.2395 123.493 48.3266 123.528 48.3964H123.039C122.987 48.3441 122.935 48.2046 122.883 47.9954C122.848 47.8211 122.726 47.7514 122.482 47.7514H122.272V48.3964H122.255ZM121.035 47.5596C121.035 48.2743 121.697 48.8496 122.569 48.8496C123.423 48.867 124.068 48.2743 124.068 47.5596C124.068 46.8449 123.423 46.2523 122.534 46.2523C121.697 46.2697 121.035 46.8449 121.035 47.5596ZM124.591 47.5596C124.591 48.4661 123.702 49.1808 122.569 49.1808C121.436 49.1808 120.529 48.4661 120.529 47.5596C120.529 46.6532 121.436 45.9385 122.569 45.9385C123.702 45.9385 124.591 46.6532 124.591 47.5596Z"></path>
<path fill="#111111" d="M98.9662 43.7769H97.5194V40.4823H99.1405C100.413 40.4823 101.145 41.075 101.145 42.1209C101.145 43.097 100.012 43.7769 98.9662 43.7769ZM100.919 45.1017C102.313 44.5439 103.237 43.3934 103.237 42.1383C103.237 40.0465 101.598 38.6345 99.1754 38.6345H95.4102V49.9826H97.5194V45.5201H98.3735C98.4956 45.6246 103.01 49.9826 103.01 49.9826H105.939C105.939 49.9826 101.267 45.4503 100.919 45.1017Z"></path>
<path fill="#111111" d="M46.7582 37.8328H44.7186V41.4063C44.7186 44.8752 43.2892 46.967 41.9121 47.7863C40.5176 46.9844 39.0708 44.91 39.0708 41.4063V37.8328H37.0312V41.2494C37.0312 45.5725 38.7047 48.5881 41.8598 49.9652L41.9296 50.0001L41.9993 49.9652C45.1196 48.5881 46.7407 45.5725 46.7407 41.2494V37.8328"></path>
<path fill="#111111" d="M62.1682 37.8328H52.4238V39.7851H56.2762V49.9827H58.3158V39.7851H62.1682V37.8328Z"></path>
<path fill="#111111" d="M69.8725 37.8328H67.833V49.9827H75.1369V48.0303H69.8725V37.8328Z"></path>
<path fill="#111111" d="M87.4781 37.8328H80.8018V49.9827H88.1057V48.0303H82.9284V44.1256H87.112V42.1733H82.9284V39.7851H87.4781V37.8328Z"></path>
<path fill="#111111" d="M120.529 37.8328H117.949C117.949 37.8328 114.776 42.5916 114.462 43.0449C114.166 42.5916 110.976 37.8328 110.976 37.8328H108.361C108.361 37.8328 113.294 45.2587 113.364 45.3633V50.0001H115.543V45.3633C115.63 45.2587 120.529 37.8328 120.529 37.8328Z"></path>
<path fill="#111111" d="M27.6874 37.0134C23.312 37.0134 20 39.8024 20 43.498C20 47.1935 23.312 49.9826 27.6874 49.9826C29.2911 49.9826 30.7728 49.5991 32.0453 48.8495L32.1499 48.7972V46.1127L31.8013 46.3916C30.4939 47.455 29.1691 47.9431 27.6874 47.9431C24.5671 47.9431 22.2138 46.0256 22.2138 43.498C22.2138 40.9704 24.5671 39.0877 27.6874 39.0877C29.1342 39.0877 30.459 39.5758 31.8187 40.6043L32.1673 40.8658V38.2162L32.0628 38.1464C30.7554 37.4143 29.2562 37.0134 27.6874 37.0134Z"></path>
<path fill="#111111" d="M47.56 20.8019H45.3985V27.548H39.1928V20.8019H37.0312V32.9692H39.1928V29.5003H45.3985V32.9692H47.56V20.8019Z"></path>
<path fill="#111111" d="M56.4854 20.8019H54.0798L54.0449 32.9692H56.4505L56.4854 20.8019Z"></path>
<path fill="#111111" d="M27.1819 20C23.0854 20 20 22.7891 20 26.4846C20 30.1801 23.0854 32.9692 27.1819 32.9692C28.681 32.9692 30.0581 32.5857 31.2609 31.8361L31.3655 31.7838V29.0994L31.0517 29.3783C29.8141 30.4416 28.5938 30.9297 27.1993 30.9297C24.2882 30.9297 22.0918 29.0122 22.0918 26.4846C22.0918 23.957 24.2882 22.0569 27.1993 22.0569C28.5415 22.0569 29.7792 22.545 31.0517 23.5909L31.3655 23.8524V21.2202L31.2609 21.1679C30.0407 20.4009 28.6287 20 27.1819 20Z"></path>
<path fill="#111111" d="M67.7102 20C63.6312 20 60.5283 22.7891 60.5283 26.4846C60.5283 30.1801 63.6137 32.9692 67.7102 32.9692C69.2268 32.9692 70.5864 32.5857 71.7892 31.8361L71.8764 31.7838V29.0994L71.5626 29.3783C70.3424 30.4416 69.1047 30.9297 67.7102 30.9297C64.7991 30.9297 62.6027 29.0122 62.6027 26.4846C62.6027 23.957 64.7991 22.0569 67.7102 22.0569C69.0699 22.0569 70.2901 22.545 71.58 23.5909L71.8938 23.8524V21.2202L71.8066 21.1679C70.5864 20.4009 69.1745 20 67.7102 20Z"></path>
<path fill="#111111" d="M97.7112 20C93.6147 20 90.5293 22.7891 90.5293 26.4846C90.5293 30.1801 93.6147 32.9692 97.7112 32.9692C99.2103 32.9692 100.587 32.5857 101.79 31.8361L101.877 31.7838V26.9553H99.803V30.5113C99.0708 30.7902 98.391 30.9297 97.6937 30.9297C94.7826 30.9297 92.5862 29.0122 92.5862 26.4846C92.5862 23.957 94.7826 22.0569 97.6937 22.0569C99.0534 22.0569 100.274 22.545 101.546 23.5909L101.86 23.8524V21.2202L101.773 21.1679C100.57 20.4009 99.1754 20 97.7112 20Z"></path>
<path fill="#111111" d="M113.678 30.9297C110.872 30.9297 108.919 29.1168 108.919 26.4846C108.919 23.957 110.959 22.0569 113.678 22.0569C116.467 22.0569 118.42 23.8698 118.42 26.4846C118.42 28.9773 116.328 30.9297 113.678 30.9297ZM113.678 20C109.739 20 106.758 22.7891 106.758 26.4846C106.758 30.2324 109.669 32.9692 113.678 32.9692C117.583 32.9692 120.529 30.1801 120.529 26.4846C120.529 22.7194 117.653 20 113.678 20Z"></path>
<path fill="#111111" d="M78.8843 27.5131C78.9366 24.2533 80.2789 23.1377 81.6386 22.3359C82.9982 23.1203 84.3405 24.2533 84.3928 27.5131H78.8843ZM81.7083 20.0349L81.6211 20L81.5514 20.0349C78.3614 21.4468 76.7402 24.5671 76.7402 29.2911V32.9692H78.8669V29.4829H84.3928V32.9692H86.4846V29.2911C86.4846 24.5671 84.8809 21.4468 81.7083 20.0349Z"></path>
</svg>
