<svg xmlns="http://www.w3.org/2000/svg" fill="none" viewBox="0 0 127 70" height="70" width="127">
<path fill="#0073A4" d="M26.0811 23.9966L25.3702 25.2241L31.3067 34.4998L25.3615 43.7602L26.0811 45.0029L32.8143 34.4998L26.0811 23.9966Z"></path>
<path fill="#0073A4" d="M27.2386 22L26.6321 23.0468L33.9748 34.4999L26.6321 45.9527L27.2386 47L35.2515 34.4999L27.2386 22Z"></path>
<path fill="#0073A4" d="M20 34.5001L24.8053 42.7997L30.1263 34.4996L24.8053 26.2L20 34.5001Z"></path>
<path fill="#1A1A1A" d="M54.5804 26.234C54.6664 26.234 54.7488 26.2682 54.8096 26.3289C54.8704 26.3897 54.9046 26.4722 54.9046 26.5581V36.0746C54.9046 36.7026 54.908 37.1483 54.915 37.4117C54.9219 37.6752 54.979 38.0516 55.0862 38.5409C55.1936 39.0303 55.3551 39.4357 55.5707 39.7573C55.8928 40.239 56.3398 40.6225 56.912 40.9077C57.4841 41.1929 58.0591 41.3355 58.637 41.3355C59.1877 41.3355 59.7357 41.2037 60.2809 40.9401C60.8261 40.6765 61.2734 40.3187 61.6228 39.8667C61.8515 39.5596 62.0263 39.1833 62.1472 38.7378C62.2681 38.2922 62.3353 37.9196 62.3486 37.6199C62.3625 37.3206 62.3693 36.8933 62.3692 36.3381V26.5581C62.3692 26.4722 62.4033 26.3897 62.4641 26.3289C62.5249 26.2682 62.6074 26.234 62.6933 26.234H63.7409C63.8268 26.234 63.9093 26.2682 63.9701 26.3289C64.031 26.3897 64.0652 26.4722 64.0652 26.5581V36.5789C64.0652 37.6307 63.9809 38.5002 63.8123 39.1875C63.6438 39.8747 63.284 40.5322 62.7329 41.1599C61.6571 42.4168 60.2922 43.0448 58.6382 43.0438C57.0774 43.0438 55.766 42.4813 54.7038 41.3562C54.099 40.7282 53.699 40.0487 53.5037 39.3177C53.3083 38.5866 53.2104 37.6737 53.21 36.5789V26.5581C53.21 26.4722 53.2441 26.3897 53.3049 26.3289C53.3657 26.2682 53.4481 26.234 53.5341 26.234H54.5804Z"></path>
<path fill="#1A1A1A" d="M102.497 29.6644C101.182 28.3279 99.5823 27.6596 97.6971 27.6596C95.8118 27.6596 94.2121 28.3279 92.8978 29.6644C91.5832 31.0009 90.9257 32.6117 90.9252 34.497C90.9252 36.3673 91.5863 37.9744 92.9084 39.3185C94.2306 40.6626 95.8268 41.3347 97.6971 41.3348C99.5677 41.3348 101.164 40.6627 102.486 39.3185C103.808 37.9743 104.469 36.3671 104.469 34.497C104.469 32.613 103.812 31.0022 102.497 29.6644ZM91.6143 28.4586C93.3018 26.7861 95.3291 25.9496 97.6961 25.9491C100.063 25.9486 102.091 26.7851 103.778 28.4586C105.466 30.132 106.31 32.1519 106.309 34.5185C106.309 36.885 105.465 38.8978 103.778 40.5568C102.091 42.2154 100.063 43.0446 97.6961 43.0446C95.3288 43.0446 93.3015 42.2154 91.6143 40.5568C89.9268 38.8983 89.083 36.8855 89.083 34.5185C89.083 32.1515 89.9268 30.1315 91.6143 28.4586Z"></path>
<path fill="#1A1A1A" d="M75.9862 26.234H65.873C65.787 26.234 65.7046 26.2682 65.6438 26.3289C65.583 26.3897 65.5488 26.4722 65.5488 26.5581V27.6192C65.5488 27.6618 65.5572 27.704 65.5734 27.7433C65.5897 27.7827 65.6136 27.8184 65.6437 27.8486C65.6738 27.8787 65.7095 27.9026 65.7489 27.9189C65.7882 27.9352 65.8304 27.9436 65.873 27.9436H69.6552C69.7411 27.9436 69.8236 27.9777 69.8843 28.0385C69.9451 28.0993 69.9793 28.1818 69.9793 28.2677V42.4352C69.9793 42.5212 70.0135 42.6037 70.0743 42.6645C70.1351 42.7254 70.2176 42.7595 70.3037 42.7595H71.4952C71.5812 42.7595 71.6637 42.7254 71.7245 42.6645C71.7854 42.6037 71.8195 42.5212 71.8195 42.4352V28.2677C71.8195 28.1818 71.8537 28.0993 71.9145 28.0385C71.9753 27.9777 72.0577 27.9436 72.1437 27.9436H75.9853C76.0279 27.9436 76.07 27.9352 76.1094 27.9189C76.1487 27.9026 76.1845 27.8787 76.2146 27.8486C76.2447 27.8184 76.2685 27.7827 76.2848 27.7433C76.3011 27.704 76.3095 27.6618 76.3094 27.6192V26.5581C76.3094 26.4723 76.2754 26.39 76.2148 26.3293C76.1542 26.2685 76.072 26.2343 75.9862 26.234Z"></path>
<path fill="#1A1A1A" d="M105.509 41.7574H105.644C105.801 41.7574 105.928 41.7048 105.928 41.577C105.928 41.4654 105.846 41.3908 105.667 41.3908C105.614 41.3901 105.561 41.395 105.509 41.4055V41.7574ZM105.502 42.447H105.216V41.2167C105.373 41.1939 105.531 41.1818 105.689 41.1804C105.921 41.1804 106.025 41.2167 106.109 41.277C106.15 41.307 106.183 41.3466 106.205 41.3923C106.227 41.4381 106.238 41.4885 106.236 41.5393C106.236 41.6888 106.123 41.7864 105.981 41.8311V41.8454C106.102 41.8843 106.161 41.9804 106.198 42.1461C106.236 42.3333 106.265 42.4009 106.288 42.4458H105.988C105.95 42.4009 105.928 42.2956 105.89 42.1461C105.869 42.0188 105.793 41.9584 105.637 41.9584H105.502L105.502 42.447ZM104.745 41.8103C104.745 42.3565 105.156 42.7919 105.705 42.7919C106.29 42.8004 106.719 42.2627 106.627 41.6519C106.562 41.2198 106.207 40.8691 105.771 40.8321C105.199 40.7838 104.745 41.2427 104.745 41.8103ZM106.954 41.8103C106.954 42.4992 106.4 43.0455 105.696 43.0455C104.992 43.0455 104.431 42.4992 104.431 41.8103C104.431 41.1215 104.992 40.5809 105.705 40.5809C106.4 40.5809 106.954 41.1212 106.954 41.8103Z"></path>
<path fill="#1A1A1A" d="M50.6588 39.318C49.336 40.6629 47.7397 41.335 45.8697 41.3343C43.9997 41.3337 42.4035 40.6616 41.081 39.318C39.7582 37.9749 39.0972 36.3679 39.0978 34.497C39.0978 32.613 39.7553 31.0022 41.0704 29.6644C42.3855 28.3266 43.9853 27.6584 45.8697 27.6596C47.755 27.6596 49.3549 28.3279 50.6695 29.6644L50.6796 29.6748C50.713 29.7097 50.7538 29.7367 50.799 29.7538C50.8442 29.7709 50.8926 29.7776 50.9408 29.7736C50.9889 29.7695 51.0356 29.7548 51.0773 29.7303C51.119 29.7059 51.1547 29.6725 51.1818 29.6325C51.3791 29.3373 51.7349 28.9149 51.8339 28.7734C52.0011 28.5874 51.9327 28.4454 51.8114 28.3229C50.1529 26.7412 48.1723 25.9501 45.8697 25.9496C43.5027 25.9496 41.4754 26.7861 39.7879 28.4591C38.1004 30.1322 37.2567 32.1519 37.2568 34.5185C37.2568 36.8855 38.1005 38.8983 39.7879 40.5568C41.4752 42.2154 43.5025 43.0446 45.8697 43.0446C48.1694 43.0446 50.1482 42.2621 51.8061 40.6969C51.9484 40.5735 51.9914 40.4351 51.8303 40.2407C51.6692 40.0462 51.3624 39.661 51.1605 39.3579C51.1338 39.3181 51.0985 39.2849 51.0572 39.2606C51.0159 39.2363 50.9697 39.2215 50.922 39.2174C50.8743 39.2133 50.8263 39.2199 50.7814 39.2367C50.7366 39.2536 50.6961 39.2803 50.663 39.3149L50.6588 39.318Z"></path>
<path fill="#1A1A1A" d="M88.1755 39.3179C86.8525 40.6628 85.2561 41.3349 83.3863 41.3343C81.5165 41.3336 79.9201 40.6615 78.597 39.3179C77.2742 37.9745 76.613 36.3674 76.6135 34.4964C76.6135 32.6125 77.271 31.0016 78.5861 29.6638C79.9012 28.326 81.5009 27.6578 83.3854 27.6591C85.2706 27.6591 86.8706 28.3273 88.1854 29.6638L88.1955 29.6742C88.229 29.7092 88.2698 29.7362 88.3151 29.7533C88.3603 29.7704 88.4089 29.7772 88.4571 29.7731C88.5053 29.769 88.552 29.7541 88.5937 29.7296C88.6354 29.7051 88.6711 29.6716 88.6982 29.6315C88.8952 29.3363 89.2513 28.9139 89.3503 28.7723C89.5177 28.5863 89.4491 28.4443 89.3281 28.3219C87.6687 26.7401 85.6882 25.949 83.3863 25.9485C81.0193 25.9485 78.9921 26.7851 77.3047 28.4581C75.6174 30.1311 74.7736 32.1512 74.7735 34.5184C74.7735 36.8855 75.6172 38.8982 77.3047 40.5568C78.9923 42.2153 81.0195 43.0446 83.3863 43.0446C85.6861 43.0446 87.665 42.262 89.323 40.6969C89.465 40.5734 89.5083 40.435 89.3457 40.2406C89.1832 40.0462 88.8779 39.6609 88.6759 39.3578C88.6492 39.3181 88.6139 39.2848 88.5727 39.2605C88.5314 39.2362 88.4853 39.2214 88.4376 39.2173C88.3899 39.2132 88.3418 39.2198 88.297 39.2367C88.2522 39.2536 88.2118 39.2802 88.1786 39.3148L88.1755 39.3179Z"></path>
</svg>
