<svg xmlns="http://www.w3.org/2000/svg" fill="none" viewBox="0 0 97 70" height="70" width="97">
<path fill="#231F20" d="M65.8512 31.8764L64.594 27.8378L60.6829 25.6059L64.3147 25.8893L62.4988 18.2371L53.6639 13.0294L49.683 16.6429L50.6957 13.7733L48.4607 10.7975L46.2258 13.7733L47.2386 16.6429L43.2576 13.0294L34.4226 18.2371L32.6068 25.8893L36.2385 25.6059L32.3274 27.8378L31.0703 31.8764L34.4226 39.3514L36.3433 34.923L36.2734 40.8747L40.4639 44.9488L41.8259 42.8232V46.3305L48.4258 57.8442L55.0258 46.3305V42.8232L56.3877 44.9488L60.5781 40.8747L60.5084 34.923L62.4291 39.3514L65.8512 31.8764ZM56.1782 33.7186L57.2608 35.5962L53.7686 39.9182L52.9306 39.4931L54.5369 42.3981L51.2893 41.7605L48.5306 46.791L45.7719 41.7605L42.4195 42.469L44.1306 39.4577L43.2924 39.8473L39.8004 35.5253L40.8829 33.6477L36.4829 25.1807L43.9908 17.4931L48.5655 19.4416L53.1401 17.4931L60.648 25.1807L56.1782 33.7186Z"></path>
<path fill="#231F20" d="M36.9714 53.7343L27.1587 33.116V14.7649L39.3111 7.6087L20 12.7456L21.7111 32.7262L32.6762 54.4428L47.9015 63.4058L36.9714 53.7343Z"></path>
<path fill="#231F20" d="M57.644 7.6087L69.7615 14.7649V33.116L59.9838 53.7343L49.0536 63.4058L64.2789 54.4428L75.2091 32.7262L76.9202 12.7456L57.644 7.6087Z"></path>
<path fill="#231F20" d="M56.4146 33.1351L56.2083 33.6618L54.1 31.6912L56.2651 35.8362L53.7508 38.6703L49.2809 37.2532L52.1444 33.6397H45.4397L48.3032 37.2532L43.8334 38.6703L41.319 35.8362L43.4841 31.6912L41.0397 34.1268L40.7527 33.2611L39.25 35.0142L42.9167 39.5975L47.7129 38.4907L48.8259 37.9261L50.0076 38.5314L53.9167 39.5975L57.5833 35.4725L56.4146 33.1351ZM40.2932 23.4146H39.9494L39.8933 23.807L40.2932 23.4146ZM46.0682 27.0148L45.0905 29.4239L47.5 26.6606L44.3921 25.952L42.1222 23.8974L40.3762 24.9246L40.1667 26.023L41.0397 25.2435H42.3666L41.4937 26.3063L44.0778 27.4754L46.0682 27.0148ZM51.5159 27.0504L53.5064 27.5109L56.0556 26.3418L55.1826 25.2789H56.5095L57.3826 26.0583L57.1731 24.9602L55.427 23.9328L53.1572 25.9876L50.0492 26.6961L52.4936 29.4593L51.5159 27.0504Z" clip-rule="evenodd" fill-rule="evenodd"></path>
</svg>
