<svg xmlns="http://www.w3.org/2000/svg" fill="none" viewBox="0 0 133 70" height="70" width="133">
<path fill="black" d="M82.9289 23.3503H85.8477V39.5787H82.9289V23.3503ZM95.6548 23.3503H87.0152V26.1523H89.8173V39.5787H92.736V26.1523H95.6548V23.3503ZM60.9797 46H63.8985V32.9239H69.269V30.0051H63.8985V26.1523H69.269V23.3503H60.9797V46ZM51.5228 46H54.4416V32.9239H59.6954V30.0051H54.4416V26.1523H59.6954V23.3503H51.5228V46ZM29.9239 30.0051H22.9188V23.3503H20V46H22.9188V32.9239H29.9239V46H32.8426V23.3503H29.9239V30.0051ZM96.7056 23.3503V26.1523H102.893L94.9543 39.5787H106.629V36.7767H99.8579L107.68 23.3503H96.7056ZM81.2944 28.4873C81.2983 25.6483 78.9866 23.2763 76.1574 23.2335L70.5533 23.3503V39.5787H73.4721V33.5076L78.0254 39.5787H81.6447L77.2081 33.5076C79.5295 33.0717 81.2983 30.9916 81.2944 28.4873ZM73.4721 30.8223V26.1523H76.0406C76.3402 26.1581 76.6356 26.2233 76.9098 26.3441C77.1839 26.4649 77.4314 26.639 77.6377 26.8562C77.8441 27.0735 78.0052 27.3295 78.1119 27.6095C78.2185 27.8895 78.2685 28.1879 78.2589 28.4873C78.2717 28.7876 78.2239 29.0873 78.1185 29.3687C78.013 29.6501 77.852 29.9074 77.645 30.1253C77.438 30.3432 77.1893 30.5172 76.9137 30.6369C76.638 30.7567 76.3411 30.8197 76.0406 30.8223H73.4721ZM42.1827 23C37.5613 23.0058 33.7961 26.7711 33.7767 31.4061C33.7961 36.0606 37.5613 39.8258 42.1827 39.8122C43.2885 39.8189 44.3846 39.6061 45.4075 39.186C46.4304 38.7659 47.3598 38.147 48.1417 37.3651C48.9236 36.5831 49.5426 35.6538 49.9626 34.6309C50.3827 33.608 50.5955 32.5119 50.5888 31.4061C50.6161 26.7711 46.8508 23.0058 42.1827 23ZM42.1827 37.0102C39.1297 36.9887 36.6332 34.4942 36.5787 31.4061C36.6066 29.9285 37.206 28.5193 38.251 27.4743C39.2959 26.4293 40.7052 25.83 42.1827 25.802C45.2844 25.8429 47.779 28.3394 47.7868 31.4061C47.7817 32.8908 47.1896 34.3132 46.1397 35.3631C45.0899 36.413 43.6675 37.005 42.1827 37.0102ZM110.832 35.7259C109.704 35.7298 108.801 36.5762 108.848 37.7107C108.801 38.814 109.704 39.6604 110.832 39.6954C111.852 39.6604 112.751 38.814 112.701 37.7107C112.714 37.4562 112.677 37.2015 112.589 36.9621C112.502 36.7227 112.367 36.5035 112.192 36.3179C112.017 36.1323 111.807 35.9841 111.573 35.8823C111.339 35.7806 111.087 35.7274 110.832 35.7259ZM110.832 39.3452C109.862 39.3724 109.159 38.6466 109.198 37.7107C109.157 36.7436 109.862 36.0197 110.832 36.0761C111.689 36.0197 112.393 36.7436 112.35 37.7107C112.393 38.6466 111.691 39.3724 110.832 39.3452Z"></path>
<path fill="black" d="M111.65 37.2435C111.706 36.759 111.448 36.545 110.949 36.543H110.015V38.8781H110.366V37.8273H110.716L111.416 38.8781H111.767L111.066 37.8273C111.444 37.7903 111.706 37.6171 111.65 37.2435ZM110.366 37.5938V36.7765H110.833C111.086 36.8349 111.348 36.8816 111.3 37.2435C111.348 37.5471 111.06 37.5646 110.716 37.5938H110.366Z"></path>
</svg>
