<svg xmlns="http://www.w3.org/2000/svg" fill="none" viewBox="0 0 168 70" height="70" width="168">
<path fill="#ED1C24" d="M39.5972 28.9403L39.7922 29.2914L40.592 29.3109C40.6505 29.3109 40.6895 29.2719 40.631 29.1744C40.1823 28.4721 39.9483 28.121 39.6557 27.6919C39.6362 27.6529 39.6167 27.6334 39.5972 27.6334C39.5776 27.6334 39.5581 27.6529 39.5386 27.6919C39.2655 28.1015 39.012 28.4526 38.5633 29.1744C38.5048 29.2719 38.5438 29.3109 38.6023 29.3109L39.3826 29.2914L39.5972 28.9403ZM39.5581 41.834C38.6023 41.8145 37.9196 41.5999 37.1003 41.1708C36.5151 40.8587 35.7739 40.1174 35.5203 40.4881C35.1887 40.9757 35.8909 41.5024 37.1393 42.3412C37.5685 42.6143 37.7831 43.297 37.588 43.9017C37.4319 44.4284 37.1198 44.721 36.6127 44.8965C36.008 45.0916 35.3643 44.9941 35.0327 44.5259C33.4721 42.3412 33.7062 39.0056 34.0768 36.9184C34.1354 36.6258 33.7257 36.3527 33.4916 36.4698C31.9506 37.2305 33.2186 39.8834 31.7361 40.2735C31.1704 40.4296 30.3706 40.2735 30.1951 39.6688C29.6294 37.7377 31.385 36.0991 32.8089 34.8117C32.8869 34.7337 32.8869 34.6166 32.8089 34.5386C31.424 32.9781 30 31.7687 30 29.8961C30 29.3304 30.1951 28.6867 30.7217 28.5502C31.2484 28.4136 31.8531 28.5111 32.2432 29.0183C32.6139 29.506 32.3408 30.2667 32.3798 30.8714C32.4383 31.8858 33.0235 33.2902 34.1939 33.6413C34.467 33.6803 34.8571 33.5048 34.7791 33.1147C34.3109 31.008 33.004 28.9208 34.1354 26.697C34.5255 25.9168 35.3448 25.1365 36.2225 25.1951C36.6907 25.2341 37.1979 25.5072 37.3539 25.9753C37.8806 27.6334 35.8714 27.2042 35.3057 28.2381C34.9156 28.9208 35.0131 29.5255 35.1887 30.2472C35.2667 30.5398 35.4423 30.9689 35.8324 30.9104C36.2225 30.8519 35.9495 30.3057 35.9495 29.9741C35.969 29.3304 36.1835 28.8037 36.6907 28.5697C37.2174 28.2966 37.8221 28.3941 38.3878 28.5502C38.7389 28.199 38.8169 28.1015 39.2265 27.5748C39.3436 27.4188 39.4216 27.2237 39.6362 27.2237C39.8507 27.2237 39.9483 27.4383 40.0653 27.5748C40.631 28.2576 40.553 28.199 40.9236 28.5502C41.4698 28.4136 42.0745 28.3161 42.6206 28.5697C43.1083 28.8037 43.3424 29.3304 43.3619 29.9741C43.3619 30.2862 43.1083 30.8324 43.4789 30.9104C43.8691 30.9689 44.0446 30.5203 44.1226 30.2472C44.2982 29.545 44.3957 28.9403 44.0056 28.2381C43.4204 27.2042 41.4308 27.6334 41.9574 25.9753C42.1135 25.5072 42.6206 25.2341 43.0888 25.1951C43.9666 25.1365 44.7859 25.9168 45.176 26.697C46.3074 28.9013 44.9809 31.008 44.5323 33.1147C44.4542 33.4853 44.8444 33.6608 45.098 33.6413C46.2683 33.2902 46.8535 31.8858 46.9121 30.8714C46.9511 30.2667 46.678 29.4865 47.0486 29.0183C47.4387 28.5111 48.0239 28.4136 48.5701 28.5502C49.1163 28.6867 49.3113 29.3499 49.2918 29.8961C49.2723 31.7687 47.8679 32.9781 46.4829 34.5386C46.4049 34.6166 46.4049 34.7337 46.4829 34.8117C47.9069 36.0991 49.6625 37.7377 49.0968 39.6688C48.9212 40.2735 48.1215 40.41 47.5558 40.2735C46.0733 39.8834 47.3607 37.2305 45.8002 36.4698C45.5466 36.3527 45.1565 36.6258 45.215 36.9184C45.5856 39.0056 45.8197 42.3412 44.2592 44.5259C43.9276 44.9941 43.2839 45.1111 42.6792 44.8965C42.172 44.721 41.8599 44.4284 41.7038 43.9017C41.5088 43.297 41.7234 42.6143 42.1525 42.3412C43.4204 41.5219 44.1226 40.9757 43.7715 40.4881C43.5179 40.0979 42.7767 40.8587 42.1915 41.1708C41.2942 41.5999 40.514 41.8145 39.5581 41.834Z" clip-rule="evenodd" fill-rule="evenodd"></path>
<path fill="#231F20" d="M60.8971 28.5502H57.0739C56.6057 28.5502 56.1961 28.7258 56.1961 29.1744C56.1961 30.4619 61.853 32.1004 61.853 35.6701C61.853 37.6207 61.3458 40.2346 56.4887 40.2346H52.4314V36.7234H56.3522C57.2299 36.7234 57.7566 36.4698 57.7566 35.9042C57.7566 34.3046 52.3143 32.9977 52.3143 29.35C52.3143 26.19 54.5576 25.0586 56.9178 25.0586H60.8581V28.5502H60.8971Z"></path>
<path fill="#231F20" d="M64.3125 44.7795V34.5387C64.3125 31.1446 67.219 29.4085 70.301 29.4085C73.6561 29.4085 76.0944 31.7883 76.0944 34.9678C76.0944 38.596 73.2269 40.4881 70.4765 40.4881C69.6573 40.4881 69.1111 40.3516 68.7795 40.2346V37.016C69.0331 37.1721 69.4817 37.3281 70.2424 37.3281C71.5884 37.3281 72.6222 36.3528 72.6222 34.9678C72.6222 33.5829 71.5884 32.6076 70.2424 32.6076C68.5844 32.6076 67.7846 33.7779 67.7846 35.4165V44.7795H64.3125Z"></path>
<path fill="#231F20" d="M81.4976 44.7795V40.3125C79.4884 39.7078 78.6301 38.3229 78.6301 36.4502V29.6815H81.9657V35.8065C81.9657 36.5088 82.1803 37.289 83.2336 37.289C84.2285 37.289 84.404 36.6063 84.404 35.67V29.701H87.7396V36.4697C87.7396 38.5374 86.5887 39.8053 84.9697 40.332V44.7795H81.4976Z"></path>
<path fill="#231F20" d="M102.077 25.039V35.3774C102.077 38.7715 99.1701 40.5076 96.0881 40.5076C92.733 40.5076 90.2947 38.1278 90.2947 34.9483C90.2947 31.3201 93.1621 29.4279 95.9125 29.4279C96.7318 29.4279 97.278 29.5645 97.6096 29.6815V32.8806C97.356 32.7245 96.9073 32.5685 96.1466 32.5685C94.8007 32.5685 93.7668 33.5438 93.7668 34.9288C93.7668 36.3137 94.8007 37.289 96.1466 37.289C97.8046 37.289 98.6044 36.1187 98.6044 34.4801V25H102.077V25.039Z"></path>
<path fill="#231F20" d="M109.936 36.3919L108.609 34.3047L111.457 32.4321C110.93 32.1005 110.521 32.0614 110.111 32.0614C108.687 32.0614 107.907 33.5244 107.907 34.7728C107.907 36.0798 108.843 37.4452 110.248 37.4452C111.555 37.4452 112.822 36.2943 113.349 35.0849L115.846 36.3724C114.851 38.7521 112.627 40.4882 110.014 40.4882C107.107 40.4882 104.571 37.9914 104.571 34.9484C104.571 31.9054 107.107 29.4086 110.014 29.4086C112.452 29.4086 114.051 30.7155 115.183 32.7637L109.936 36.3919Z"></path>
<path fill="#231F20" d="M121.017 31.4371H121.056C121.582 29.9351 122.577 29.6815 124.099 29.6815V32.8416C121.68 32.9196 121.465 33.4463 121.465 35.2799V40.2345H117.993V29.6815H121.017V31.4371Z"></path>
<path fill="#231F20" d="M133.091 32.8221H131.628C130.204 32.8221 129.443 33.6413 129.443 34.9482C129.443 36.2552 130.204 37.094 131.628 37.094H133.11V40.215H131.023C128.507 40.215 125.971 38.2838 125.971 34.9482C125.971 31.6322 128.507 29.6815 131.023 29.6815H133.11V32.8221H133.091Z"></path>
<path fill="#231F20" d="M141.069 29.4085C143.976 29.4085 146.511 31.9053 146.511 34.9483C146.511 37.9913 143.976 40.4881 141.069 40.4881C138.163 40.4881 135.627 37.9913 135.627 34.9483C135.627 31.9053 138.163 29.4085 141.069 29.4085ZM141.069 37.1916C142.279 37.1916 143.176 36.1772 143.176 34.9483C143.176 33.7389 142.279 32.7051 141.069 32.7051C139.86 32.7051 138.962 33.7194 138.962 34.9483C138.962 36.1577 139.84 37.1916 141.069 37.1916Z"></path>
<path fill="#231F20" d="M145.498 39.8639C145.498 39.4543 145.829 39.1031 146.259 39.1031C146.668 39.1031 147.019 39.4543 147.019 39.8639C147.019 40.293 146.668 40.6247 146.259 40.6247C145.849 40.6247 145.498 40.2735 145.498 39.8639ZM146.883 39.8639C146.883 39.5128 146.61 39.2397 146.259 39.2397C145.907 39.2397 145.634 39.5128 145.634 39.8639C145.634 40.215 145.907 40.4881 146.259 40.4881C146.61 40.4686 146.883 40.1955 146.883 39.8639ZM146.649 40.2735H146.454L146.278 39.9224H146.122V40.2735H145.966V39.4543H146.356C146.434 39.4543 146.512 39.4543 146.571 39.4933C146.649 39.5323 146.668 39.6298 146.668 39.7078C146.668 39.8639 146.59 39.9224 146.454 39.9224L146.649 40.2735ZM146.356 39.8054C146.454 39.8054 146.512 39.7859 146.512 39.6883C146.512 39.5713 146.395 39.5713 146.317 39.5713H146.122V39.8054H146.356Z"></path>
<path fill="#ED1C24" d="M45.9561 43.6481C45.9561 43.2384 46.2877 42.8873 46.7168 42.8873C47.1264 42.8873 47.4776 43.2384 47.4776 43.6481C47.4776 44.0772 47.1264 44.4088 46.7168 44.4088C46.3072 44.4088 45.9561 44.0577 45.9561 43.6481ZM47.341 43.6481C47.341 43.297 47.0679 43.0239 46.7168 43.0239C46.3657 43.0239 46.0926 43.297 46.0926 43.6481C46.0926 43.9992 46.3657 44.2723 46.7168 44.2723C47.0679 44.2723 47.341 43.9797 47.341 43.6481ZM47.1069 44.0577H46.9119L46.7363 43.7066H46.5803V44.0577H46.4242V43.2384H46.8143C46.8924 43.2384 46.9704 43.2384 47.0289 43.2775C47.1069 43.3165 47.1264 43.414 47.1264 43.492C47.1264 43.6481 47.0484 43.7066 46.9119 43.7066L47.1069 44.0577ZM46.8143 43.5896C46.9119 43.5896 46.9704 43.5701 46.9704 43.4725C46.9704 43.3555 46.8533 43.3555 46.7753 43.3555H46.5803V43.5896H46.8143Z"></path>
</svg>
