<svg xmlns="http://www.w3.org/2000/svg" fill="none" viewBox="0 0 195 70" height="70" width="195">
<path fill="#433844" d="M95.0256 36.5284C95.0256 37.4093 94.8442 37.9274 94.4038 38.3419C93.8339 38.9119 93.1085 39.3005 91.01 39.3005C88.9116 39.3005 88.1862 38.9119 87.6681 38.3419C87.2017 37.8497 86.9686 37.202 87.0204 36.5284V30.7512H84.3261V37.0466C84.3261 38.3419 84.7147 39.1709 85.3883 39.8186C86.3468 40.7772 87.694 41.4248 91.0359 41.4248C94.3779 41.4248 95.7251 40.7772 96.6836 39.8186C97.3313 39.1709 97.7199 38.3419 97.7199 37.0466V30.7512H95.0256V36.5284ZM75.3106 39.2746L71.7095 30.7512H68.6266L65.0256 39.2746L60.5955 30.7512H57.4608L63.0567 41.1398H66.7354L70.1033 33.0829L73.4712 41.1398H77.1758L82.7976 30.7512H79.7924L75.3106 39.2746ZM107.279 34.974C104.637 34.8445 103.393 34.715 102.979 34.5854C102.616 34.4818 102.383 34.1191 102.409 33.7305C102.409 33.3678 102.616 33.0569 102.927 32.9274C103.782 32.7202 104.689 32.6424 105.57 32.6683C107.487 32.6683 109.378 32.9274 111.217 33.4196L112.228 31.4766C110.958 30.9844 108.523 30.5958 106.191 30.5958C102.979 30.5958 101.528 30.9844 100.699 31.7875C100.181 32.4093 99.896 33.1865 99.922 34.0155C99.922 35.0259 100.285 35.7772 100.958 36.1917C101.917 36.7357 103.653 37.0466 106.45 37.1761C108.834 37.3056 109.663 37.3575 110.026 37.5388C110.311 37.6683 110.492 37.9792 110.492 38.2901C110.518 38.6787 110.259 39.0673 109.896 39.1709C109.404 39.3523 108.238 39.43 106.425 39.43C104.456 39.4041 102.513 39.0932 100.647 38.5492L99.637 40.4663C101.062 41.088 103.678 41.5284 106.425 41.5284C110.077 41.5284 111.554 40.9585 112.254 40.2331C112.746 39.7927 112.953 39.1191 112.953 38.2383C112.979 37.4611 112.694 36.7098 112.124 36.1658C111.191 35.3108 109.896 35.1036 107.279 34.974ZM153.653 30.3886C149.663 30.3886 148.316 31.1917 147.383 32.1502C146.476 33.1088 146.114 34.5077 146.114 35.9585C146.114 37.5906 146.476 38.7823 147.383 39.715C148.29 40.6476 149.637 41.4766 153.653 41.4766C157.642 41.4766 158.989 40.6735 159.922 39.715C160.829 38.7564 161.191 37.5906 161.191 35.9585C161.191 34.5077 160.829 33.1088 159.922 32.1502C159.015 31.1917 157.668 30.3886 153.653 30.3886ZM157.694 38.2642C157.176 38.8601 156.347 39.3523 153.653 39.3523C150.958 39.3523 150.129 38.8601 149.559 38.2642C149.171 37.8497 148.86 37.202 148.86 35.9585C148.86 34.8704 149.171 34.0155 149.559 33.601C150.129 33.0051 150.958 32.5129 153.653 32.5129C156.347 32.5129 157.176 33.0051 157.694 33.601C158.134 34.0155 158.445 34.8704 158.445 35.9585C158.445 37.2279 158.134 37.8497 157.694 38.2642ZM114.507 32.9274H119.637V41.1398H122.331V32.9274H127.124L128.29 30.7512H114.507V32.9274ZM174.274 32.9274L175.44 30.7512H163.238V41.1398H165.932V37.3316H172.15L173.186 35.3367H165.932V32.9274H174.274ZM141.399 34.7668H132.616V30.7512H129.922V41.1398H132.616V36.8911H141.399V41.1398H144.093V30.7512H141.399V34.7668ZM87.0204 26.8652H89.7147V29.0414H87.0204V26.8652ZM92.3313 26.8652H95.0256V29.0414H92.3313V26.8652Z"></path>
<path fill="#ED1C24" d="M35 20C26.7098 20 20 26.7098 20 35C20 43.2902 26.7098 50 35 50C43.2902 50 50 43.2902 50 35C50 26.7098 43.2902 20 35 20ZM35 47.9534C27.8497 47.9534 22.0466 42.1503 22.0466 34.9741C22.0466 27.8238 27.8497 22.0207 35.0259 22.0207C42.1762 22.0207 47.9793 27.8238 47.9793 34.9741C47.9534 42.1503 42.1503 47.9534 35 47.9534Z"></path>
<path fill="#ED1C24" d="M39.4304 29.3523V35.3368H36.3475V29.3523L35.0003 27.1761L33.6532 29.3523V35.3368H30.5703V29.3523L29.2231 27.1761L27.876 29.3523V37.4611H33.7309V44.6632H36.2698V37.4611H42.1247V29.3264L40.7775 27.1761L39.4304 29.3523Z"></path>
</svg>
