<svg xmlns="http://www.w3.org/2000/svg" fill="none" viewBox="0 0 93 70" height="70" width="93">
<path fill="#231F20" d="M72.1649 62.3929C71.1242 60.6311 69.2232 60.735 69.2232 60.735C68.6725 60.735 68.1666 60.8297 67.7139 61.0119C67.2699 61.1893 66.8833 61.4414 66.5628 61.7612C66.2422 62.0801 65.9911 62.4637 65.8158 62.9049C65.6382 63.3517 65.5462 63.8458 65.5462 64.3815C65.5462 64.9191 65.6402 65.4144 65.8219 65.8598C65.9929 66.2857 66.2488 66.6724 66.5742 66.9963C66.8994 67.3163 67.2863 67.567 67.7114 67.733C68.1529 67.9085 68.6429 68.0002 69.1747 68.0002C69.6012 68.0002 70.0017 67.9389 70.3719 67.8199C70.7359 67.7036 71.0765 67.5239 71.3781 67.2893C71.6718 67.0598 71.9219 66.7794 72.1164 66.4614C72.2885 66.2019 72.4197 65.9176 72.5055 65.6183C72.5702 65.3999 72.6137 65.1617 72.6374 64.8968C72.6614 64.6117 72.6735 64.3258 72.6736 64.0397H69.3066V65.3222H70.8569L70.8424 65.4219C70.8113 65.5963 70.7487 65.7635 70.6576 65.9155C70.5751 66.0492 70.4725 66.1631 70.3515 66.257C70.2292 66.3517 70.0901 66.4269 69.9362 66.4815C69.7772 66.537 69.612 66.5727 69.4443 66.5879C69.294 66.6028 69.1426 66.6024 68.9924 66.5868C68.8812 66.5748 68.7712 66.5535 68.6635 66.5233C68.4435 66.4601 68.2375 66.3558 68.0565 66.2158C67.871 66.0714 67.7141 65.8938 67.5938 65.6921C67.4589 65.4697 67.3623 65.2263 67.3078 64.972C67.2445 64.6941 67.2268 64.4077 67.2554 64.1241C67.2665 64.0219 67.2847 63.9213 67.3078 63.8233C67.3408 63.6827 67.3872 63.5456 67.4463 63.4138C67.5383 63.2117 67.6659 63.0278 67.8232 62.8709C67.9835 62.7097 68.1741 62.5816 68.384 62.494C68.6437 62.386 68.9046 62.3414 69.1644 62.3589C69.1644 62.3589 70.1076 62.3275 70.5756 63.2433L72.1649 62.3929ZM57.3784 60.8255V67.83H58.9529V63.3698L62.7283 67.8979H64.0896V60.9041H62.5195V65.3539L58.7444 60.8258L57.3784 60.8255ZM53.8391 67.83H55.4142V60.9038H53.8391V67.83ZM48.1628 60.9035V67.83H52.2478V66.4821H49.7381V60.9038L48.1628 60.9035ZM42.3457 60.9035V67.83H46.431V66.4821H43.9205V60.9038L42.3457 60.9035ZM38.7361 67.83H40.311V60.9038H38.7361V67.83ZM31.5993 60.8726L30.0317 65.4542L28.6674 60.9038H27.0304L29.2697 67.83H30.6458L32.1225 63.5988L33.5582 67.83H34.9346L37.2516 60.9038H35.6149L34.1987 65.4542L32.6727 60.8726H31.5993ZM20.5407 60.9035V62.2523H23.3347L20 67.83H25.6799V66.4821H22.6267L25.9475 60.9038L20.5407 60.9035Z"></path>
<path fill="#EC2628" d="M20 3H72.6733V55.6395H20V3Z"></path>
<path fill="white" d="M46.3366 35.813L41.1926 30.6952L44.4975 21.2501H48.1756L51.4813 30.6952L46.3366 35.813ZM63.4929 21.2501V11.9813H65.9142V8.69716H60.1412V17.8072H55.5784C54.5331 17.4587 54.3029 15.3186 54.2775 15.0445C55.6952 14.583 56.7203 13.2534 56.7203 11.6827C56.7203 9.72947 55.1358 8.14591 53.1807 8.14591C51.226 8.14591 49.6415 9.72947 49.6415 11.6827C49.6415 13.2534 50.6666 14.583 52.084 15.0448C52.0589 15.3186 51.8286 17.4587 50.7831 17.8072H41.8908C40.8459 17.4587 40.6154 15.3206 40.59 15.0453C42.0076 14.5838 43.0328 13.2537 43.0328 11.6832C43.0328 9.72947 41.4479 8.14563 39.4932 8.14563C37.5382 8.14563 35.9534 9.72947 35.9534 11.6832C35.9534 13.2537 36.9791 14.5838 38.3964 15.0453C38.3708 15.3206 38.1405 17.4587 37.0953 17.8072H29.1805V27.0194H26.7598V30.3498H32.5331V21.2501H34.4881L37.7938 30.6952L30.9499 37.5345V47.0729H28.3424V50.3757H34.3947V39.0467L39.5623 33.8821L44.5906 38.9072V47.0729H42.0308V50.376L50.6435 50.3757V47.0729H48.0831V38.9069L53.1113 33.8818L58.279 39.0467V50.3754H64.3313V47.0732H61.7241V37.5348L54.8802 30.6952L58.1859 21.2501H63.4929Z"></path>
</svg>
